<svg width="24" height="24" viewBox="0 0 24 24" fill="none" xmlns="http://www.w3.org/2000/svg">
<g id="bootstrap-solid.svg" clip-path="url(#clip0_7_5)">
<g id="Group">
<path id="Vector" d="M24 20C24 22.2 22.2 24 20 24H4C1.8 24 0 22.2 0 20V4C0 1.8 1.8 0 4 0H20C22.2 0 24 1.8 24 4V20Z" fill="#563D7C"/>
<path id="Vector_2" d="M6.52158 5.2157H13.3255C14.5804 5.2157 15.5882 5.50197 16.3451 6.07844C17.102 6.65491 17.4824 7.52158 17.4824 8.68629C17.4824 9.39217 17.3098 9.99609 16.9647 10.4981C16.6196 11 16.1255 11.3922 15.4824 11.6667V11.7059C16.3451 11.8902 17 12.2981 17.4431 12.9294C17.8863 13.5647 18.1098 14.3569 18.1098 15.3137C18.1098 15.8628 18.0118 16.3765 17.8157 16.851C17.6196 17.3294 17.3137 17.7412 16.8941 18.0863C16.4745 18.4314 15.9412 18.7059 15.2863 18.9098C14.6314 19.1137 13.8549 19.2157 12.9529 19.2157H6.52158V5.2157ZM8.97256 11.0784H12.9726C13.5608 11.0784 14.051 10.9137 14.4431 10.5765C14.8353 10.2392 15.0314 9.7608 15.0314 9.13334C15.0314 8.42746 14.8549 7.92942 14.502 7.64315C14.149 7.35687 13.6392 7.21178 12.9726 7.21178H8.97256V11.0784ZM8.97256 17.2157H13.3059C14.051 17.2157 14.6314 17.0235 15.0392 16.6353C15.451 16.251 15.6588 15.702 15.6588 14.9961C15.6588 14.302 15.4549 13.7726 15.0392 13.3961C14.6235 13.0196 14.051 12.8392 13.3059 12.8392H8.97256V17.2157Z" fill="white"/>
</g>
</g>
<defs>
<clipPath id="clip0_7_5">
<rect width="24" height="24" fill="white"/>
</clipPath>
</defs>
</svg>
