<svg width="48" height="48" viewBox="0 0 48 48" fill="none" xmlns="http://www.w3.org/2000/svg">
<g clip-path="url(#clip0_1_378)">
<path d="M24.0002 0.180054C19.2891 0.180054 14.6837 1.57707 10.7665 4.19445C6.84932 6.81182 3.79625 10.532 1.99337 14.8845C0.190497 19.2371 -0.281219 24.0265 0.637881 28.6471C1.55698 33.2677 3.82561 37.512 7.1569 40.8433C10.4882 44.1746 14.7325 46.4433 19.3532 47.3624C23.9738 48.2815 28.7632 47.8097 33.1157 46.0069C37.4683 44.204 41.1884 41.1509 43.8058 37.2337C46.4232 33.3166 47.8202 28.7112 47.8202 24.0001C47.8139 17.6845 45.3022 11.6295 40.8365 7.16379C36.3707 2.69805 30.3157 0.186407 24.0002 0.180054ZM24.0002 44.8201C19.8824 44.8201 15.8571 43.599 12.4332 41.3113C9.00938 39.0235 6.34083 35.7719 4.76501 31.9675C3.1892 28.1632 2.77689 23.977 3.58023 19.9383C4.38358 15.8996 6.36649 12.1898 9.27822 9.27809C12.19 6.36636 15.8997 4.38345 19.9384 3.5801C23.9771 2.77676 28.1633 3.18907 31.9677 4.76488C35.772 6.3407 39.0237 9.00925 41.3114 12.4331C43.5991 15.8569 44.8202 19.8822 44.8202 24.0001C44.8139 29.5199 42.6183 34.8119 38.7152 38.715C34.812 42.6181 29.5201 44.8137 24.0002 44.8201Z" fill="black"/>
<path d="M33.8761 14.9281C32.1241 15.2041 30.3721 15.3961 28.6081 15.5281C29.292 14.5905 29.6617 13.4606 29.6641 12.3001C29.699 11.5479 29.5811 10.7965 29.3173 10.0912C29.0535 9.38598 28.6495 8.74155 28.1296 8.19691C27.6097 7.65228 26.9847 7.21875 26.2924 6.92255C25.6002 6.62635 24.855 6.47363 24.1021 6.47363C23.3491 6.47363 22.604 6.62635 21.9117 6.92255C21.2195 7.21875 20.5945 7.65228 20.0746 8.19691C19.5547 8.74155 19.1506 9.38598 18.8868 10.0912C18.6231 10.7965 18.5051 11.5479 18.5401 12.3001C18.5424 13.4606 18.9121 14.5905 19.5961 15.5281C17.8321 15.3961 16.0681 15.2041 14.3161 14.9281C13.5951 14.7879 12.8485 14.8717 12.1765 15.1681C11.5045 15.4645 10.9392 15.9594 10.5565 16.5863C10.1738 17.2132 9.9921 17.9421 10.0356 18.6753C10.0791 19.4085 10.3459 20.1108 10.8001 20.688C11.0815 21.0806 11.4389 21.4125 11.8513 21.664C12.2636 21.9155 12.7223 22.0815 13.2001 22.152C15.2041 22.476 17.2801 22.7041 19.3921 22.8481V24.7081L13.2001 34.4401C12.9401 34.8458 12.7625 35.2989 12.6776 35.7733C12.5926 36.2477 12.602 36.7341 12.705 37.2049C12.9132 38.1557 13.4906 38.9849 14.3101 39.51C15.1296 40.0352 16.1242 40.2132 17.075 40.0051C17.5458 39.902 17.9916 39.7072 18.3871 39.4318C18.7827 39.1564 19.1201 38.8058 19.3801 38.4L24.0001 31.056L28.6441 38.4C28.9019 38.809 29.2382 39.1628 29.6335 39.4411C30.0289 39.7194 30.4754 39.9165 30.9474 40.0213C31.4194 40.126 31.9074 40.1361 32.3833 40.0512C32.8593 39.9662 33.3136 39.7878 33.7202 39.5263C34.1268 39.2647 34.4776 38.9252 34.7522 38.5274C35.0268 38.1295 35.2199 37.6812 35.3203 37.2083C35.4208 36.7353 35.4265 36.2472 35.3372 35.7721C35.2479 35.297 35.0653 34.8442 34.8001 34.4401L28.8001 24.996V22.8001C30.9121 22.6561 32.9881 22.4281 34.9921 22.1041C35.9469 21.9449 36.7993 21.413 37.3619 20.6254C37.9245 19.8377 38.1512 18.8588 37.9921 17.9041C37.8329 16.9493 37.301 16.0968 36.5134 15.5342C35.7257 14.9716 34.7469 14.7449 33.7921 14.9041L33.8761 14.9281ZM24.0961 9.73205C24.6068 9.71773 25.1102 9.85607 25.5419 10.1294C25.9735 10.4027 26.3139 10.7986 26.5193 11.2664C26.7248 11.7342 26.786 12.2527 26.6952 12.7554C26.6044 13.2582 26.3657 13.7225 26.0096 14.0889C25.6534 14.4553 25.1961 14.7071 24.6961 14.8122C24.1961 14.9172 23.6761 14.8707 23.2027 14.6787C22.7292 14.4866 22.3239 14.1577 22.0384 13.734C21.7529 13.3102 21.6003 12.811 21.6001 12.3001C21.5998 11.6313 21.8605 10.9888 22.3266 10.5092C22.7927 10.0296 23.4276 9.7508 24.0961 9.73205ZM34.5601 19.2001C32.1432 19.5792 29.7077 19.8276 27.2641 19.9441C26.8789 19.9626 26.5156 20.1287 26.2497 20.4081C25.9837 20.6874 25.8356 21.0584 25.8361 21.4441V25.4401C25.838 25.7254 25.9212 26.0043 26.0761 26.2441L32.2921 36C32.3387 36.0733 32.3704 36.155 32.3853 36.2405C32.4003 36.326 32.3982 36.4137 32.3793 36.4984C32.3603 36.5831 32.3249 36.6632 32.2749 36.7342C32.2249 36.8052 32.1614 36.8656 32.0881 36.912C31.9393 37.003 31.761 37.0326 31.5908 36.9945C31.4206 36.9565 31.2719 36.8537 31.1761 36.708L25.2721 27.396C25.1436 27.1913 24.9672 27.0209 24.7581 26.8997C24.5491 26.7784 24.3136 26.7099 24.0721 26.7C23.8187 26.7002 23.5695 26.764 23.3472 26.8856C23.1249 27.0072 22.9368 27.1828 22.8001 27.396L16.8001 36.756C16.7591 36.8395 16.7009 36.9133 16.6294 36.9727C16.5578 37.0321 16.4745 37.0757 16.385 37.1007C16.2954 37.1257 16.2016 37.1314 16.1097 37.1176C16.0177 37.1038 15.9297 37.0707 15.8515 37.0205C15.7732 36.9703 15.7064 36.9041 15.6555 36.8264C15.6046 36.7486 15.5707 36.6609 15.556 36.5691C15.5413 36.4773 15.5462 36.3834 15.5704 36.2936C15.5945 36.2038 15.6373 36.1201 15.6961 36.0481L22.0921 25.956C22.2488 25.7172 22.3322 25.4377 22.3321 25.152V21.4321C22.3325 21.0464 22.1844 20.6754 21.9185 20.3961C21.6526 20.1167 21.2893 19.9506 20.9041 19.9321C18.4727 19.8189 16.0491 19.5745 13.6441 19.2001C13.5578 19.188 13.475 19.1583 13.4007 19.1129C13.3264 19.0675 13.2622 19.0073 13.2121 18.9361C13.1317 18.8318 13.085 18.7056 13.0781 18.5742C13.0712 18.4428 13.1045 18.3124 13.1735 18.2003C13.2426 18.0883 13.3441 17.9999 13.4646 17.947C13.5851 17.8941 13.7189 17.8791 13.8481 17.9041C20.6374 18.9841 27.5548 18.9841 34.3441 17.9041C34.5168 17.8791 34.6926 17.9211 34.8353 18.0215C34.9781 18.1219 35.0771 18.273 35.1121 18.4441C35.1364 18.6171 35.0924 18.7928 34.9894 18.934C34.8863 19.0751 34.7323 19.1705 34.5601 19.2001Z" fill="black"/>
</g>
<defs>
<clipPath id="clip0_1_378">
<rect width="48" height="48" fill="white"/>
</clipPath>
</defs>
</svg>
