<svg width="48" height="48" viewBox="0 0 48 48" fill="none" xmlns="http://www.w3.org/2000/svg">
<g clip-path="url(#clip0_1_329)">
<path fill-rule="evenodd" clip-rule="evenodd" d="M11.186 4C12.1091 4 12.8574 4.74832 12.8574 5.67143V9.01429H16.2C17.1231 9.01429 17.8714 9.76261 17.8714 10.6857C17.8714 11.6088 17.1231 12.3571 16.2 12.3571H12.8574V15.7C12.8574 16.6231 12.1091 17.3714 11.186 17.3714C10.2629 17.3714 9.51456 16.6231 9.51456 15.7V12.3571H6.17143C5.24832 12.3571 4.5 11.6088 4.5 10.6857C4.5 9.76261 5.24832 9.01429 6.17143 9.01429H9.51456V5.67143C9.51456 4.74832 10.2629 4 11.186 4ZM22.886 5.11429C21.9629 5.11429 21.2146 5.86261 21.2146 6.78572C21.2146 7.70882 21.9629 8.45715 22.886 8.45715H35.1431C37.9124 8.45715 40.1574 10.7021 40.1574 13.4714V25.7286H29.5714C27.7252 25.7286 26.2286 27.2252 26.2286 29.0714V39.6571H13.9717C11.2024 39.6571 8.95742 37.4122 8.95742 34.6429V22.3857C8.95742 21.4626 8.20909 20.7143 7.28599 20.7143C6.36288 20.7143 5.61456 21.4626 5.61456 22.3857V34.6429C5.61456 39.2584 9.35618 43 13.9717 43H26.7536C28.379 43 29.9378 42.3543 31.0871 41.205L41.7053 30.5869C42.8546 29.4375 43.5003 27.8787 43.5003 26.2533V13.4714C43.5003 8.85591 39.7587 5.11429 35.1431 5.11429H22.886ZM29.5714 37.9932L38.4932 29.0714H29.5714V37.9932Z" fill="#1D1C1D"/>
</g>
<defs>
<clipPath id="clip0_1_329">
<rect width="48" height="48" fill="white"/>
</clipPath>
</defs>
</svg>
