<svg width="48" height="48" viewBox="0 0 48 48" fill="none" xmlns="http://www.w3.org/2000/svg">
<g clip-path="url(#clip0_1_365)">
<path d="M45.3844 10.7999C44.8688 10.5064 44.2856 10.352 43.6924 10.352C43.0991 10.352 42.5159 10.5064 42.0004 10.7999L34.8004 14.9999V14.0879C34.8004 12.7353 34.2631 11.4381 33.3067 10.4817C32.3501 9.52525 31.0529 8.98792 29.7004 8.98792H6.00039C4.64778 8.98792 3.35058 9.52525 2.39414 10.4817C1.43771 11.4381 0.900391 12.7353 0.900391 14.0879V35.3399C0.900391 36.0096 1.03231 36.6729 1.2886 37.2917C1.5449 37.9104 1.92057 38.4726 2.39414 38.9462C2.86772 39.4197 3.42995 39.7955 4.0487 40.0517C4.66746 40.308 5.33064 40.4399 6.00039 40.4399H29.6764C30.3481 40.4432 31.0139 40.3136 31.6354 40.0586C32.257 39.8037 32.822 39.4286 33.2981 38.9547C33.7742 38.4809 34.1521 37.9175 34.4099 37.2972C34.6676 36.6768 34.8004 36.0117 34.8004 35.3399V34.4279L42.0004 38.5799C42.5221 38.8809 43.1141 39.0383 43.7164 39.0359C44.315 39.0396 44.9036 38.8821 45.4204 38.5799C45.9442 38.2832 46.3793 37.8521 46.681 37.3311C46.9826 36.81 47.1399 36.218 47.1364 35.6159V13.8119C47.145 13.1982 46.9865 12.5937 46.6778 12.0631C46.3693 11.5325 45.9221 11.0959 45.3844 10.7999ZM31.7764 16.6799V35.3399C31.7764 35.8968 31.5551 36.431 31.1612 36.8249C30.7675 37.2186 30.2333 37.4399 29.6764 37.4399H6.00039C5.44343 37.4399 4.90929 37.2186 4.51547 36.8249C4.12164 36.431 3.90039 35.8968 3.90039 35.3399V14.0879C3.90356 13.5331 4.1262 13.002 4.5197 12.6107C4.91318 12.2195 5.44551 11.9999 6.00039 11.9999H29.6764C30.2333 11.9999 30.7675 12.2212 31.1612 12.615C31.5551 13.0088 31.7764 13.543 31.7764 14.0999V16.6799ZM44.1004 35.6159C44.1017 35.6901 44.0822 35.7633 44.044 35.8269C44.0059 35.8905 43.9505 35.9423 43.8844 35.9759C43.8226 36.0182 43.7494 36.0408 43.6744 36.0408C43.5994 36.0408 43.5262 36.0182 43.4644 35.9759L34.8004 30.9599V18.4679L43.4884 13.4519C43.5502 13.4096 43.6234 13.387 43.6984 13.387C43.7734 13.387 43.8466 13.4096 43.9084 13.4519C43.9745 13.4857 44.0299 13.5373 44.068 13.6009C44.1062 13.6646 44.1257 13.7377 44.1244 13.8119L44.1004 35.6159Z" fill="#1D1C1D"/>
<path d="M25.608 24.252C25.2419 24.1245 24.8403 24.1463 24.4901 24.3123C24.1397 24.4785 23.8689 24.7758 23.736 25.14C23.2955 26.3382 22.4994 27.3731 21.4544 28.1063C20.4095 28.8395 19.1654 29.2358 17.8889 29.2424C16.6124 29.2488 15.3642 28.8653 14.3118 28.1427C13.2594 27.4203 12.4528 26.3936 12 25.2C11.8473 24.8631 11.5737 24.5958 11.2333 24.4511C10.8928 24.3063 10.5105 24.2948 10.1619 24.4185C9.81334 24.5423 9.52392 24.7923 9.35097 25.1193C9.17802 25.4463 9.13414 25.8263 9.22801 26.184C9.86803 27.9692 11.0439 29.5131 12.5947 30.6045C14.1455 31.6961 15.9956 32.2818 17.892 32.2818C19.7885 32.2818 21.6386 31.6961 23.1894 30.6045C24.7401 29.5131 25.916 27.9692 26.556 26.184C26.6291 25.9955 26.6622 25.7939 26.6534 25.592C26.6447 25.3899 26.5941 25.1919 26.5052 25.0104C26.4161 24.8289 26.2904 24.6678 26.136 24.5373C25.9815 24.4068 25.8018 24.3096 25.608 24.252Z" fill="#1D1C1D"/>
<path d="M14.8442 23.388C15.1926 23.3902 15.5338 23.2894 15.8248 23.098C16.116 22.9068 16.344 22.6335 16.48 22.3128C16.6161 21.9921 16.654 21.6382 16.5892 21.2959C16.5244 20.9536 16.3597 20.6382 16.116 20.3893C15.8721 20.1405 15.5601 19.9695 15.2193 19.8978C14.8783 19.8261 14.5238 19.8568 14.2004 19.9863C13.877 20.1157 13.5991 20.3382 13.4019 20.6253C13.2047 20.9125 13.0969 21.2515 13.0922 21.6C13.0874 21.8331 13.1292 22.0647 13.215 22.2814C13.301 22.4982 13.4292 22.6956 13.5924 22.8621C13.7556 23.0286 13.9503 23.1609 14.1653 23.2512C14.3802 23.3415 14.611 23.388 14.8442 23.388Z" fill="#1D1C1D"/>
<path d="M20.5561 23.388C20.9044 23.3902 21.2456 23.2894 21.5368 23.098C21.8279 22.9068 22.0558 22.6335 22.1918 22.3128C22.3279 21.9921 22.366 21.6382 22.3012 21.2959C22.2364 20.9536 22.0717 20.6382 21.8279 20.3893C21.584 20.1405 21.272 19.9695 20.9311 19.8978C20.5903 19.8261 20.2357 19.8568 19.9123 19.9863C19.5889 20.1157 19.3111 20.3382 19.1138 20.6253C18.9166 20.9125 18.8089 21.2515 18.8041 21.6C18.7993 21.8331 18.841 22.0647 18.9269 22.2814C19.0129 22.4982 19.1411 22.6956 19.3043 22.8621C19.4675 23.0286 19.6622 23.1609 19.8772 23.2512C20.0921 23.3415 20.323 23.388 20.5561 23.388Z" fill="#1D1C1D"/>
</g>
<defs>
<clipPath id="clip0_1_365">
<rect width="48" height="48" fill="white"/>
</clipPath>
</defs>
</svg>
