<svg width="48" height="48" viewBox="0 0 48 48" fill="none" xmlns="http://www.w3.org/2000/svg">
<g clip-path="url(#clip0_1_340)">
<path fill-rule="evenodd" clip-rule="evenodd" d="M12.859 12.801C9.89262 15.6425 8.10083 19.3222 8.10083 22.8001V26.7582C9.75757 25.232 11.97 24.3 14.4001 24.3H14.7501C17.0421 24.3 18.9001 26.158 18.9001 28.45V38.75C18.9001 41.042 17.0421 42.9 14.7501 42.9H14.4001C9.26385 42.9 5.1001 38.7362 5.1001 33.6C5.1001 33.5606 5.10034 33.5213 5.10083 33.482V22.8001C5.10083 18.3251 7.36985 13.9048 10.7838 10.6345C14.2085 7.35408 18.9171 5.1001 24.0008 5.1001C29.0845 5.1001 33.7932 7.35408 37.2178 10.6345C40.6318 13.9048 42.9008 18.3251 42.9008 22.8001V33.5566L42.9009 33.6C42.9009 38.7362 38.7372 42.9 33.6009 42.9H33.2509C30.959 42.9 29.1009 41.042 29.1009 38.75V28.45C29.1009 26.158 30.959 24.3 33.2509 24.3H33.6009C36.0313 24.3 38.244 25.2323 39.9008 26.7588V22.8001C39.9008 19.3222 38.109 15.6425 35.1426 12.801C32.1869 9.96967 28.1955 8.1001 24.0008 8.1001C19.8062 8.1001 15.8148 9.96967 12.859 12.801ZM8.1001 33.6001C8.10016 37.0794 10.9207 39.9 14.4001 39.9H14.7501C15.3852 39.9 15.9001 39.3851 15.9001 38.75V28.45C15.9001 27.8149 15.3852 27.3 14.7501 27.3H14.4001C10.9531 27.3 8.15273 30.0683 8.10083 33.5029L8.1001 33.6001ZM39.9008 33.6001V33.5643C39.8816 30.1013 37.0684 27.3 33.6009 27.3H33.2509C32.6158 27.3 32.1009 27.8149 32.1009 28.45V38.75C32.1009 39.3851 32.6158 39.9 33.2509 39.9H33.6009C37.0803 39.9 39.9008 37.0794 39.9008 33.6001Z" fill="#1D1C1D"/>
</g>
<defs>
<clipPath id="clip0_1_340">
<rect width="48" height="48" fill="white"/>
</clipPath>
</defs>
</svg>
