<svg width="48" height="48" viewBox="0 0 48 48" fill="none" xmlns="http://www.w3.org/2000/svg">
<g clip-path="url(#clip0_1_351)">
<path d="M42.0004 13.2959H29.9164V10.1039C29.9164 8.7513 29.3791 7.4541 28.4227 6.49765C27.4661 5.54122 26.1689 5.00391 24.8164 5.00391H6.00039C4.64876 5.00707 3.35339 5.54541 2.39765 6.50116C1.4419 7.4569 0.903559 8.75227 0.900391 10.1039V26.0278C0.900391 27.3805 1.43771 28.6777 2.39414 29.6341C3.35058 30.5905 4.64778 31.1278 6.00039 31.1278H7.92039V35.2558C7.92003 35.5423 8.00105 35.823 8.154 36.0652C8.30697 36.3073 8.52558 36.5011 8.78439 36.6238C9.04644 36.7389 9.33507 36.7795 9.61868 36.7414C9.90228 36.7033 10.17 36.588 10.3924 36.4078L16.7044 31.1278H18.0844V34.3078C18.0844 35.6637 18.623 36.9639 19.5817 37.9227C20.5403 38.8813 21.8405 39.4198 23.1964 39.4198H31.2964L37.6084 44.7118C37.8826 44.9365 38.2259 45.0595 38.5804 45.0598C38.8004 45.0595 39.0176 45.0103 39.2164 44.9158C39.4733 44.794 39.6907 44.6022 39.8435 44.3622C39.9964 44.1223 40.0784 43.8442 40.0804 43.5598V39.4198H42.0004C43.3529 39.4198 44.6501 38.8825 45.6067 37.9261C46.5631 36.9697 47.1004 35.6725 47.1004 34.3198V18.3958C47.0972 17.0443 46.5589 15.7489 45.6031 14.7932C44.6474 13.8374 43.352 13.2991 42.0004 13.2959ZM16.1524 28.1278C15.8026 28.1338 15.4648 28.2562 15.1924 28.4758L10.9204 32.0758V29.6758C10.9204 29.278 10.7624 28.8966 10.481 28.6152C10.1997 28.3339 9.81821 28.1758 9.42039 28.1758H6.00039C5.44343 28.1758 4.90929 27.9546 4.51547 27.5608C4.12164 27.1669 3.90039 26.6328 3.90039 26.0758V10.1039C3.90354 9.54792 4.1258 9.01561 4.51895 8.62246C4.9121 8.22931 5.4444 8.00706 6.00039 8.00391H24.8164C25.3733 8.00391 25.9075 8.22516 26.3012 8.61898C26.6951 9.01281 26.9164 9.54694 26.9164 10.1039V26.0158C26.9164 26.2932 26.8618 26.5678 26.7556 26.8242C26.6495 27.0804 26.4938 27.3132 26.2978 27.5092C26.1017 27.7054 25.8688 27.861 25.6126 27.9672C25.3564 28.0732 25.0817 28.1278 24.8044 28.1278H16.1524ZM44.1004 34.3198C44.1004 34.8768 43.8791 35.4109 43.4852 35.8048C43.0915 36.1986 42.5573 36.4198 42.0004 36.4198H38.5804C38.1826 36.4198 37.801 36.5779 37.5197 36.8592C37.2385 37.1406 37.0804 37.522 37.0804 37.9198V40.3198L32.8084 36.7198C32.5411 36.4899 32.2009 36.3624 31.8484 36.3598H23.1964C22.6363 36.3598 22.099 36.1374 21.703 35.7412C21.3068 35.3452 21.0844 34.8081 21.0844 34.2478V31.1278H24.8164C26.1689 31.1278 27.4661 30.5905 28.4227 29.6341C29.3791 28.6777 29.9164 27.3805 29.9164 26.0278V16.3078H42.0004C42.5564 16.311 43.0886 16.5333 43.4818 16.9264C43.8749 17.3196 44.0972 17.8519 44.1004 18.4078V34.3198Z" fill="#1D1C1D"/>
<path d="M9.16791 16.2718C8.85388 16.2789 8.54893 16.3785 8.29124 16.5582C8.03356 16.7377 7.83462 16.9894 7.71931 17.2816C7.60402 17.5738 7.5775 17.8935 7.6431 18.2007C7.70868 18.5079 7.86345 18.7888 8.08803 19.0084C8.31259 19.228 8.59698 19.3765 8.90556 19.4353C9.21412 19.494 9.53316 19.4604 9.8227 19.3386C10.1122 19.2168 10.3594 19.0123 10.5332 18.7507C10.7071 18.489 10.7998 18.1819 10.7999 17.8678C10.8016 17.6547 10.7603 17.4435 10.6784 17.2467C10.5966 17.0499 10.4758 16.8717 10.3235 16.7226C10.1711 16.5736 9.99021 16.4569 9.79164 16.3794C9.59308 16.302 9.38094 16.2654 9.16791 16.2718Z" fill="#1D1C1D"/>
<path d="M15.4439 16.2719C15.1287 16.2743 14.8213 16.37 14.5605 16.5467C14.2996 16.7235 14.0969 16.9736 13.9779 17.2655C13.859 17.5572 13.8291 17.8778 13.892 18.1866C13.9549 18.4953 14.1079 18.7787 14.3315 19.0007C14.5552 19.2227 14.8396 19.3734 15.1488 19.434C15.4581 19.4946 15.7784 19.4624 16.0694 19.3413C16.3602 19.2201 16.6089 19.0155 16.7837 18.7533C16.9586 18.4911 17.0519 18.183 17.0519 17.8679C17.0519 17.6573 17.0102 17.4488 16.9292 17.2544C16.8483 17.06 16.7297 16.8834 16.5801 16.7351C16.4307 16.5867 16.2533 16.4694 16.0583 16.3899C15.8633 16.3104 15.6545 16.2704 15.4439 16.2719Z" fill="#1D1C1D"/>
<path d="M21.7323 19.4639C22.0479 19.4639 22.3566 19.3703 22.6189 19.1949C22.8814 19.0196 23.086 18.7703 23.2068 18.4787C23.3275 18.1871 23.3592 17.8661 23.2977 17.5565C23.236 17.2469 23.0841 16.9625 22.8609 16.7393C22.6377 16.5161 22.3533 16.3641 22.0437 16.3025C21.7341 16.241 21.4131 16.2726 21.1215 16.3934C20.8299 16.5141 20.5806 16.7187 20.4052 16.9812C20.2299 17.2436 20.1363 17.5522 20.1363 17.8678C20.1346 18.0778 20.1748 18.2862 20.2545 18.4805C20.3341 18.6749 20.4517 18.8514 20.6002 18.9999C20.7487 19.1484 20.9253 19.266 21.1197 19.3457C21.3139 19.4253 21.5223 19.4655 21.7323 19.4639Z" fill="#1D1C1D"/>
</g>
<defs>
<clipPath id="clip0_1_351">
<rect width="48" height="48" fill="white"/>
</clipPath>
</defs>
</svg>
